PathFileType  4	(X/Y/Z) C:\Users\antoi\Documents\MyRepositories\mobilecap\ResultsAnalysis
DataRate	CameraRate	NumFrames	NumMarkers	Units	OrigDataRate	OrigDataStartFrame	OrigNumFrames
100.0	100.0	4	51	mm	100.0	21	160
Frame#	Time	r_knee			r_shank_antsup			r_ankle			r_calc			r_5meta			r_toe			L_knee			L_shank_antsup			L_ankle			L_calc			L_5meta			L_toe			r_sh2			r_sh3			r_sh4			L_sh2			L_sh3			r_thigh1			r_thigh2			r_thigh3			r_thigh4			r_thigh5			L_thigh1			L_thigh2			L_thigh3			L_thigh4			r.ASIS			r.PSIS			L.ASIS			L.PSIS			C7			R_Shoulder			L_Shoulder			R_Sternum			L_Sternum			R_humerus			R_elbow_med			R_elbow_lat			R_forearm			R_wrist_radius			R_wrist_ulna			L_humerus			L_elbow_med			L_elbow_lat			L_forearm			L_wrist_radius			L_wrist_ulna			R_HJC			L_HJC			R_HJC_reg			L_HJC_reg			
		X1	Y1	Z1	X2	Y2	Z2	X3	Y3	Z3	X4	Y4	Z4	X5	Y5	Z5	X6	Y6	Z6	X7	Y7	Z7	X8	Y8	Z8	X9	Y9	Z9	X10	Y10	Z10	X11	Y11	Z11	X12	Y12	Z12	X13	Y13	Z13	X14	Y14	Z14	X15	Y15	Z15	X16	Y16	Z16	X17	Y17	Z17	X18	Y18	Z18	X19	Y19	Z19	X20	Y20	Z20	X21	Y21	Z21	X22	Y22	Z22	X23	Y23	Z23	X24	Y24	Z24	X25	Y25	Z25	X26	Y26	Z26	X27	Y27	Z27	X28	Y28	Z28	X29	Y29	Z29	X30	Y30	Z30	X31	Y31	Z31	X32	Y32	Z32	X33	Y33	Z33	X34	Y34	Z34	X35	Y35	Z35	X36	Y36	Z36	X37	Y37	Z37	X38	Y38	Z38	X39	Y39	Z39	X40	Y40	Z40	X41	Y41	Z41	X42	Y42	Z42	X43	Y43	Z43	X44	Y44	Z44	X45	Y45	Z45	X46	Y46	Z46	X47	Y47	Z47	X48	Y48	Z48	X49	Y49	Z49	X50	Y50	Z50	X51	Y51	Z51	

21	0.20000000	171.98727	547.21915	-133.29895	207.21365	420.28672	-149.64216	119.27466	92.52336	-174.26678	55.95172	65.61502	-226.91409	250.29560	36.05411	-124.68914	291.57728	60.88116	-194.75651	29.68861	521.07911	-499.20785	-0.86985	415.04174	-480.56061	-318.06372	288.17425	-409.58668	-351.18472	330.34605	-340.86164	-338.40910	133.48653	-446.43607	-292.14762	109.40267	-388.89631	210.59327	308.93865	-175.49843	145.61114	406.73729	-105.28231	155.02734	290.30802	-115.11648	-58.21586	482.05701	-503.61698	-142.29030	393.96087	-500.90193	222.49030	793.35341	-143.71311	238.77386	683.09296	-162.83307	220.26720	647.11584	-107.68875	143.54651	764.33815	-66.29756	164.34380	651.50200	-92.33705	91.71786	770.72436	-504.38454	111.87655	634.26683	-515.58298	-19.54892	749.27720	-498.82724	2.49691	612.72826	-504.41897	140.75106	1043.32294	-158.63121	-78.16418	1068.23556	-207.77803	92.84577	1012.44418	-419.54968	-95.45584	1061.06326	-302.81126	15.58047	1567.47855	-265.26580	75.17102	1473.14361	-85.70880	85.33430	1515.72563	-445.85298	143.18610	1467.62541	-246.89252	139.88268	1469.27840	-294.47602	65.90827	1301.91813	-19.35023	-35.81411	1092.56985	-65.83339	-16.89382	1111.92350	13.48089	79.58517	964.72926	19.97593	113.45562	847.32341	26.32538	80.79717	836.96930	52.76733	65.86528	1343.44762	-535.29526	-60.85666	1156.74001	-510.43052	-11.07388	1162.44941	-574.93117	44.38177	1006.05833	-541.45972	48.65952	885.92214	-560.96702	28.97844	892.68860	-605.52248	54.05781	960.37364	-170.19615	17.93005	926.49083	-377.77292	62.89649	954.20569	-176.45549	31.43245	941.15928	-349.40509	
22	0.21000000	175.58097	547.15967	-132.73665	209.66838	419.90181	-149.19892	119.35113	92.66428	-174.26690	56.07710	65.80322	-226.97940	250.23577	35.98020	-124.59545	291.65524	60.77776	-194.66018	51.53518	524.65685	-500.28149	22.05185	418.87237	-481.63314	-294.57376	290.62865	-408.87561	-328.99318	331.56868	-340.20890	-310.89299	135.45691	-446.05369	-264.05482	112.54455	-388.63720	212.16045	308.58881	-175.16100	147.88468	406.79222	-104.92423	156.40754	290.28615	-114.79502	-35.61202	485.93809	-503.78218	-119.62774	397.76915	-500.88369	230.00976	792.82366	-143.21380	244.48204	682.14145	-162.37190	225.58003	646.47526	-107.16532	150.59776	764.76038	-65.60377	169.72175	651.62921	-91.72623	107.01732	775.25529	-504.49630	130.34998	639.26719	-516.55470	-4.21808	751.29334	-498.18320	21.43950	614.99007	-504.65657	150.98026	1044.78629	-157.62563	-68.07108	1070.07275	-206.67042	103.41259	1014.96018	-418.68177	-85.34936	1063.06519	-301.71040	25.86544	1569.31369	-264.31182	86.26457	1474.83872	-85.11813	94.37786	1517.75788	-445.47483	153.51209	1469.46212	-246.77122	149.97376	1471.19200	-294.32485	77.65349	1303.49829	-19.02466	-24.03051	1093.85342	-64.76825	-4.42047	1113.19717	14.30939	93.40016	966.88153	19.40334	128.35522	849.88916	25.21543	96.05691	839.13963	51.96849	73.74584	1345.69710	-534.96786	-53.91343	1159.67641	-509.90508	-4.35063	1165.16175	-574.55639	49.94521	1008.30287	-541.61286	53.12030	888.08255	-561.34611	33.63260	895.22762	-606.01160	64.25066	961.93767	-169.48600	28.24741	928.85368	-377.20824	73.11215	956.11427	-175.64648	41.67584	943.36791	-348.59161	
23	0.22000000	178.93900	547.08685	-132.22756	211.97515	419.56157	-148.77887	119.42583	92.82913	-174.28161	56.25143	65.96788	-227.06851	250.13086	35.87931	-124.50775	291.72079	60.68965	-194.57373	73.14334	528.42667	-501.06542	44.90444	422.80861	-482.47362	-270.62720	291.68831	-408.38319	-306.60346	331.37464	-339.89285	-282.24762	135.87748	-445.47664	-234.76387	114.54765	-388.13887	213.62285	308.27207	-174.80916	149.99111	406.88755	-104.63186	157.64196	290.30593	-114.50551	-13.28817	489.65519	-503.72572	-96.92783	401.07825	-500.80394	237.35014	792.19514	-142.69264	249.93274	681.06609	-161.87621	230.62193	645.74892	-106.65184	157.40999	765.08179	-64.96934	174.82968	651.68065	-91.18822	121.88970	779.75336	-504.60931	148.69108	644.46902	-517.23313	10.99184	753.44691	-497.61377	40.32473	617.44407	-504.94212	160.93760	1046.19508	-156.37913	-58.11456	1071.81154	-205.67517	114.29920	1017.53205	-417.52274	-75.29650	1065.15428	-300.82003	36.07269	1571.13312	-263.58172	97.41584	1476.73308	-84.72265	103.19617	1519.60642	-445.28363	163.80788	1471.34586	-246.84462	160.00046	1473.09293	-294.36183	89.45539	1305.31208	-18.80355	-12.33953	1095.42774	-63.68411	8.00373	1114.77302	15.15220	107.12365	969.33476	18.81924	143.16377	852.78322	24.06706	111.23633	841.64333	51.16422	81.37735	1347.79251	-534.78552	-46.94824	1162.25656	-509.34503	2.24982	1167.62083	-574.25083	55.80808	1010.43125	-541.85439	58.01806	890.12327	-561.74867	38.63054	897.57553	-606.48520	74.18840	963.44428	-168.69082	38.75309	931.27287	-376.64595	83.27154	957.80786	-174.83181	52.05187	945.71062	-347.72367	
24	0.23000000	182.09121	547.00951	-131.78780	214.16494	419.25968	-148.40767	119.51105	93.02166	-174.31198	56.45409	66.09964	-227.15470	249.97397	35.74432	-124.42405	291.77117	60.61027	-194.49587	94.49768	532.28594	-501.56024	67.71825	426.68749	-483.02904	-246.21375	291.34117	-408.09434	-283.80859	329.80661	-339.83528	-252.78874	134.86724	-444.73358	-204.54333	115.42024	-387.47938	215.01439	307.98465	-174.48461	151.98884	407.00962	-104.40181	158.79404	290.35856	-114.26004	8.79071	492.97876	-503.58988	-74.09008	403.62111	-500.74859	244.44782	791.44753	-142.18700	255.11173	679.87570	-161.39817	235.43326	644.95565	-106.17943	164.02876	765.31267	-64.40192	179.73369	651.69064	-90.73575	136.42155	784.16912	-504.75113	166.89194	649.80317	-517.60292	26.13326	755.64792	-497.19112	59.14152	620.05398	-505.32561	170.57847	1047.51652	-154.92332	-48.28819	1073.45328	-204.80296	125.39920	1020.11152	-416.07429	-65.30404	1067.25958	-300.12202	46.20818	1572.92065	-263.07240	108.61359	1478.79608	-84.52583	111.84053	1521.26165	-445.25720	174.10262	1473.26650	-247.08344	169.98806	1474.96140	-294.56174	101.29746	1307.34655	-18.66075	-0.71691	1097.26718	-62.58216	20.39243	1116.62605	16.01376	120.74995	972.04855	18.24378	157.87616	855.94977	22.91068	126.32131	844.42954	50.35578	88.76275	1349.73232	-534.77212	-39.95721	1164.49462	-508.73485	8.73095	1169.83136	-573.99722	61.96999	1012.43435	-542.19821	63.33581	892.03247	-562.20787	43.91437	899.72528	-606.95813	83.85091	964.87034	-167.81217	49.38273	933.69387	-376.07258	93.30365	959.36111	-173.96482	62.46063	948.12898	-346.73120	
